<?xml version="1.0" encoding="UTF-8"?>
<svg width="794px" height="208px" viewBox="0 0 794 208" version="1.1" xmlns="http://www.w3.org/2000/svg" xmlns:xlink="http://www.w3.org/1999/xlink">
    <title>header</title>
    <defs>
        <polygon id="path-1" points="114.929687 86.2978507 57.4789973 114.934725 0.028307171 86.2978507 0.028307171 114.934725 57.4789973 143.570313 114.929687 114.934725"></polygon>
        <polygon id="path-3" points="100.216392 78.5558601 71.7805521 93.0814193 14.8290975 64.6992666 43.2160432 50.1531239"></polygon>
    </defs>
    <g id="header" stroke="none" stroke-width="1" fill="none" fill-rule="evenodd">
        <g id="Logo" transform="translate(23.7188, 32.0312)">
            <mask id="mask-2" fill="white">
                <use xlink:href="#path-1"></use>
            </mask>
            <use id="Path" fill="#6101FF" xlink:href="#path-1"></use>
            <mask id="mask-4" fill="white">
                <use xlink:href="#path-3"></use>
            </mask>
            <use id="Path" fill="#6101FF" xlink:href="#path-3"></use>
            <polygon id="top" fill="#6101FF" fill-rule="nonzero" points="114.90138 57.2724618 57.4506902 28.6355877 0 57.2724618 0 28.6355877 57.4506902 0 114.90138 28.6355877"></polygon>
        </g>
        <g id="Logo-Text" transform="translate(184, 34)" fill="#4F4F4F" fill-rule="nonzero">
            <g id="Sentinel-One---Text-Outlines" transform="translate(2.494, 32.82)">
                <path d="M29.318,79.929 C23.8253333,79.929 18.9033333,79.0373333 14.552,77.254 C10.2006667,75.4706667 6.72316667,72.8313333 4.1195,69.336 C1.51583333,65.8406667 0.142666667,61.632 0,56.71 L19.474,56.71 C19.7593333,59.492 20.7223333,61.6141667 22.363,63.0765 C24.0036667,64.5388333 26.1436667,65.27 28.783,65.27 C31.4936667,65.27 33.6336667,64.6458333 35.203,63.3975 C36.7723333,62.1491667 37.557,60.4193333 37.557,58.208 C37.557,56.3533333 36.9328333,54.8196667 35.6845,53.607 C34.4361667,52.3943333 32.9025,51.3956667 31.0835,50.611 C29.2645,49.8263333 26.6786667,48.9346667 23.326,47.936 C18.4753333,46.438 14.5163333,44.94 11.449,43.442 C8.38166667,41.944 5.74233333,39.7326667 3.531,36.808 C1.31966667,33.8833333 0.214,30.067 0.214,25.359 C0.214,18.3683333 2.74633333,12.8935 7.811,8.9345 C12.8756667,4.9755 19.474,2.996 27.606,2.996 C35.8806667,2.996 42.5503333,4.9755 47.615,8.9345 C52.6796667,12.8935 55.3903333,18.404 55.747,25.466 L35.952,25.466 C35.8093333,23.0406667 34.9176667,21.1325 33.277,19.7415 C31.6363333,18.3505 29.532,17.655 26.964,17.655 C24.7526667,17.655 22.9693333,18.2435 21.614,19.4205 C20.2586667,20.5975 19.581,22.2916667 19.581,24.503 C19.581,26.9283333 20.7223333,28.8186667 23.005,30.174 C25.2876667,31.5293333 28.8543333,32.9916667 33.705,34.561 C38.5556667,36.2016667 42.4968333,37.771 45.5285,39.269 C48.5601667,40.767 51.1816667,42.9426667 53.393,45.796 C55.6043333,48.6493333 56.71,52.323 56.71,56.817 C56.71,61.097 55.6221667,64.9846667 53.4465,68.48 C51.2708333,71.9753333 48.1143333,74.7573333 43.977,76.826 C39.8396667,78.8946667 34.9533333,79.929 29.318,79.929 Z" id="Path"></path>
                <path d="M117.040738,48.364 C117.040738,50.076 116.933738,51.8593333 116.719738,53.714 L75.310738,53.714 C75.5960713,57.4233333 76.7909047,60.2588333 78.895238,62.2205 C80.9995713,64.1821667 83.5854047,65.163 86.652738,65.163 C91.2180713,65.163 94.3924047,63.237 96.175738,59.385 L115.649738,59.385 C114.651071,63.3083333 112.849905,66.8393333 110.246238,69.978 C107.642571,73.1166667 104.379071,75.5776667 100.455738,77.361 C96.5324047,79.1443333 92.1454047,80.036 87.294738,80.036 C81.4454047,80.036 76.2380713,78.7876667 71.672738,76.291 C67.1074047,73.7943333 63.540738,70.2276667 60.972738,65.591 C58.404738,60.9543333 57.120738,55.533 57.120738,49.327 C57.120738,43.121 58.3869047,37.6996667 60.919238,33.063 C63.4515713,28.4263333 67.0004047,24.8596667 71.565738,22.363 C76.1310713,19.8663333 81.3740713,18.618 87.294738,18.618 C93.072738,18.618 98.208738,19.8306667 102.702738,22.256 C107.196738,24.6813333 110.709905,28.141 113.242238,32.635 C115.774571,37.129 117.040738,42.372 117.040738,48.364 Z M98.315738,43.549 C98.315738,40.4103333 97.245738,37.9136667 95.105738,36.059 C92.965738,34.2043333 90.290738,33.277 87.080738,33.277 C84.0134047,33.277 81.4275713,34.1686667 79.323238,35.952 C77.2189047,37.7353333 75.9170713,40.2676667 75.417738,43.549 L98.315738,43.549 Z" id="Shape"></path>
                <path d="M154.864476,18.832 C161.855143,18.832 167.436976,21.0968333 171.609976,25.6265 C175.782976,30.1561667 177.869476,36.38 177.869476,44.298 L177.869476,79.18 L159.679476,79.18 L159.679476,46.759 C159.679476,42.7643333 158.645143,39.6613333 156.576476,37.45 C154.507809,35.2386667 151.725809,34.133 148.230476,34.133 C144.735143,34.133 141.953143,35.2386667 139.884476,37.45 C137.815809,39.6613333 136.781476,42.7643333 136.781476,46.759 L136.781476,79.18 L118.484476,79.18 L118.484476,19.474 L136.781476,19.474 L136.781476,27.392 C138.636143,24.7526667 141.132809,22.6661667 144.271476,21.1325 C147.410143,19.5988333 150.941143,18.832 154.864476,18.832 Z" id="Path"></path>
                <path d="M215.693214,63.665 L215.693214,79.18 L206.384214,79.18 C199.750214,79.18 193.308903,79.9464484 188.879156,76.0704203 C184.44941,72.1943922 185.305214,65.7693333 185.305214,58.422 L185.305214,34.668 L178.029214,34.668 L178.029214,19.474 L185.305214,19.474 L185.305214,4.922 L203.602214,4.922 L203.602214,19.474 L215.586214,19.474 L215.586214,34.668 L203.602214,34.668 L203.602214,58.636 C203.602214,60.4193333 204.030214,61.7033333 204.886214,62.488 C205.742214,63.2726667 207.168881,63.665 209.166214,63.665 L215.693214,63.665 Z" id="Path"></path>
                <path d="M236.968952,23.4192856 L236.968952,79.18 L218.671952,79.18 L218.671952,23.4192856 L236.968952,23.4192856 Z M236.968952,4.41928564 L236.968952,19.581 L218.671952,19.581 L218.671952,4.41928564 L236.968952,4.41928564 Z" id="Shape"></path>
                <path d="M276.43069,18.832 C283.421357,18.832 289.00319,21.0968333 293.17619,25.6265 C297.34919,30.1561667 299.43569,36.38 299.43569,44.298 L299.43569,79.18 L281.24569,79.18 L281.24569,46.759 C281.24569,42.7643333 280.211357,39.6613333 278.14269,37.45 C276.074023,35.2386667 273.292023,34.133 269.79669,34.133 C266.301357,34.133 263.519357,35.2386667 261.45069,37.45 C259.382023,39.6613333 258.34769,42.7643333 258.34769,46.759 L258.34769,79.18 L240.05069,79.18 L240.05069,19.474 L258.34769,19.474 L258.34769,27.392 C260.202357,24.7526667 262.699023,22.6661667 265.83769,21.1325 C268.976357,19.5988333 272.507357,18.832 276.43069,18.832 Z" id="Path"></path>
                <path d="M360.264428,48.364 C360.264428,50.076 360.157428,51.8593333 359.943428,53.714 L318.534428,53.714 C318.819761,57.4233333 320.014595,60.2588333 322.118928,62.2205 C324.223261,64.1821667 326.809095,65.163 329.876428,65.163 C334.441761,65.163 337.616095,63.237 339.399428,59.385 L358.873428,59.385 C357.874761,63.3083333 356.073595,66.8393333 353.469928,69.978 C350.866261,73.1166667 347.602761,75.5776667 343.679428,77.361 C339.756095,79.1443333 335.369095,80.036 330.518428,80.036 C324.669095,80.036 319.461761,78.7876667 314.896428,76.291 C310.331095,73.7943333 306.764428,70.2276667 304.196428,65.591 C301.628428,60.9543333 300.344428,55.533 300.344428,49.327 C300.344428,43.121 301.610595,37.6996667 304.142928,33.063 C306.675261,28.4263333 310.224095,24.8596667 314.789428,22.363 C319.354761,19.8663333 324.597761,18.618 330.518428,18.618 C336.296428,18.618 341.432428,19.8306667 345.926428,22.256 C350.420428,24.6813333 353.933595,28.141 356.465928,32.635 C358.998261,37.129 360.264428,42.372 360.264428,48.364 Z M341.539428,43.549 C341.539428,40.4103333 340.469428,37.9136667 338.329428,36.059 C336.189428,34.2043333 333.514428,33.277 330.304428,33.277 C327.237095,33.277 324.651261,34.1686667 322.546928,35.952 C320.442595,37.7353333 319.140761,40.2676667 318.641428,43.549 L341.539428,43.549 Z" id="Shape"></path>
                <polygon id="Path" points="380.005166 0 380.005166 79.18 361.708166 79.18 361.708166 0"></polygon>
                <path d="M424.610904,79.929 C417.548904,79.929 411.075404,78.2883333 405.190404,75.007 C399.305404,71.7256667 394.633071,67.1425 391.173404,61.2575 C387.713737,55.3725 385.983904,48.7563333 385.983904,41.409 C385.983904,34.0616667 387.713737,27.4633333 391.173404,21.614 C394.633071,15.7646667 399.305404,11.1993333 405.190404,7.918 C411.075404,4.63666667 417.548904,2.996 424.610904,2.996 C431.672904,2.996 438.146404,4.63666667 444.031404,7.918 C449.916404,11.1993333 454.553071,15.7646667 457.941404,21.614 C461.329737,27.4633333 463.023904,34.0616667 463.023904,41.409 C463.023904,48.7563333 461.311904,55.3725 457.887904,61.2575 C454.463904,67.1425 449.827237,71.7256667 443.977904,75.007 C438.128571,78.2883333 431.672904,79.929 424.610904,79.929 Z M424.610904,63.237 C430.602904,63.237 435.400071,61.2396667 439.002404,57.245 C442.604737,53.2503333 444.405904,47.9716667 444.405904,41.409 C444.405904,34.775 442.604737,29.4785 439.002404,25.5195 C435.400071,21.5605 430.602904,19.581 424.610904,19.581 C418.547571,19.581 413.714737,21.5426667 410.112404,25.466 C406.510071,29.3893333 404.708904,34.7036667 404.708904,41.409 C404.708904,48.043 406.510071,53.3395 410.112404,57.2985 C413.714737,61.2575 418.547571,63.237 424.610904,63.237 Z" id="Shape"></path>
                <path d="M500.382642,18.832 C507.373309,18.832 512.955142,21.0968333 517.128142,25.6265 C521.301142,30.1561667 523.387642,36.38 523.387642,44.298 L523.387642,79.18 L505.197642,79.18 L505.197642,46.759 C505.197642,42.7643333 504.163309,39.6613333 502.094642,37.45 C500.025975,35.2386667 497.243975,34.133 493.748642,34.133 C490.253309,34.133 487.471309,35.2386667 485.402642,37.45 C483.333975,39.6613333 482.299642,42.7643333 482.299642,46.759 L482.299642,79.18 L464.002642,79.18 L464.002642,19.474 L482.299642,19.474 L482.299642,27.392 C484.154309,24.7526667 486.650975,22.6661667 489.789642,21.1325 C492.928309,19.5988333 496.459309,18.832 500.382642,18.832 Z" id="Path"></path>
                <path d="M584.21638,48.364 C584.21638,50.076 584.10938,51.8593333 583.89538,53.714 L542.48638,53.714 C542.771713,57.4233333 543.966547,60.2588333 546.07088,62.2205 C548.175213,64.1821667 550.761047,65.163 553.82838,65.163 C558.393713,65.163 561.568047,63.237 563.35138,59.385 L582.82538,59.385 C581.826713,63.3083333 580.025547,66.8393333 577.42188,69.978 C574.818213,73.1166667 571.554713,75.5776667 567.63138,77.361 C563.708047,79.1443333 559.321047,80.036 554.47038,80.036 C548.621047,80.036 543.413713,78.7876667 538.84838,76.291 C534.283047,73.7943333 530.71638,70.2276667 528.14838,65.591 C525.58038,60.9543333 524.29638,55.533 524.29638,49.327 C524.29638,43.121 525.562547,37.6996667 528.09488,33.063 C530.627213,28.4263333 534.176047,24.8596667 538.74138,22.363 C543.306713,19.8663333 548.549713,18.618 554.47038,18.618 C560.24838,18.618 565.38438,19.8306667 569.87838,22.256 C574.37238,24.6813333 577.885547,28.141 580.41788,32.635 C582.950213,37.129 584.21638,42.372 584.21638,48.364 Z M565.49138,43.549 C565.49138,40.4103333 564.42138,37.9136667 562.28138,36.059 C560.14138,34.2043333 557.46638,33.277 554.25638,33.277 C551.189047,33.277 548.603213,34.1686667 546.49888,35.952 C544.394547,37.7353333 543.092713,40.2676667 542.59338,43.549 L565.49138,43.549 Z" id="Shape"></path>
            </g>
            <path d="M588.804,49.884 C589.83,49.884 590.7435,50.118 591.5445,50.586 C592.3455,51.054 592.9755,51.702 593.4345,52.53 C593.8935,53.358 594.123,54.285 594.123,55.311 C594.123,56.337 593.8935,57.2595 593.4345,58.0785 C592.9755,58.8975 592.3455,59.541 591.5445,60.009 C590.7435,60.477 589.83,60.711 588.804,60.711 C587.778,60.711 586.86,60.477 586.05,60.009 C585.24,59.541 584.6055,58.8975 584.1465,58.0785 C583.6875,57.2595 583.458,56.337 583.458,55.311 C583.458,54.285 583.6875,53.358 584.1465,52.53 C584.6055,51.702 585.24,51.054 586.05,50.586 C586.86,50.118 587.778,49.884 588.804,49.884 Z M588.804,59.82 C590.1,59.82 591.1485,59.397 591.9495,58.551 C592.7505,57.705 593.151,56.625 593.151,55.311 C593.151,53.997 592.7505,52.917 591.9495,52.071 C591.1485,51.225 590.1,50.802 588.804,50.802 C587.49,50.802 586.4325,51.225 585.6315,52.071 C584.8305,52.917 584.43,53.997 584.43,55.311 C584.43,56.625 584.8305,57.705 585.6315,58.551 C586.4325,59.397 587.49,59.82 588.804,59.82 Z M591.153,54.123 C591.153,54.573 591.027,54.9465 590.775,55.2435 C590.523,55.5405 590.172,55.734 589.722,55.824 L591.342,58.146 L589.965,58.173 L588.48,55.878 L587.859,55.878 L587.859,58.173 L586.698,58.173 L586.698,52.368 L589.209,52.368 C589.803,52.368 590.2755,52.5255 590.6265,52.8405 C590.9775,53.1555 591.153,53.583 591.153,54.123 Z M587.859,54.906 L589.128,54.906 C589.38,54.906 589.587,54.843 589.749,54.717 C589.911,54.591 589.992,54.402 589.992,54.15 C589.992,53.898 589.911,53.7135 589.749,53.5965 C589.587,53.4795 589.38,53.421 589.128,53.421 L587.859,53.421 L587.859,54.906 Z" id="Reserved"></path>
        </g>
    </g>
</svg>