<?xml version="1.0" encoding="UTF-8"?>
<svg width="919px" height="208px" viewBox="0 0 919 208" version="1.1" xmlns="http://www.w3.org/2000/svg" xmlns:xlink="http://www.w3.org/1999/xlink">
    <title>sdl-header</title>
    <defs>
        <polygon id="path-1" points="114.929687 86.2978507 57.4789973 114.934725 0.028307171 86.2978507 0.028307171 114.934725 57.4789973 143.570313 114.929687 114.934725"></polygon>
        <polygon id="path-3" points="100.216392 78.5558601 71.7805521 93.0814193 14.8290975 64.6992666 43.2160432 50.1531239"></polygon>
    </defs>
    <g id="sdl-header" stroke="none" stroke-width="1" fill="none" fill-rule="evenodd">
        <g id="Logo" transform="translate(23.7188, 32.0312)">
            <mask id="mask-2" fill="white">
                <use xlink:href="#path-1"></use>
            </mask>
            <use id="Path" fill="#6101FF" xlink:href="#path-1"></use>
            <mask id="mask-4" fill="white">
                <use xlink:href="#path-3"></use>
            </mask>
            <use id="Path" fill="#6101FF" xlink:href="#path-3"></use>
            <polygon id="top" fill="#6101FF" fill-rule="nonzero" points="114.90138 57.2724618 57.4506902 28.6355877 0 57.2724618 0 28.6355877 57.4506902 0 114.90138 28.6355877"></polygon>
        </g>
        <g id="Logo-Text" transform="translate(180, 34)" fill="#000000" fill-rule="nonzero">
            <g id="SDL-Calculator---Text-Outlines" transform="translate(4.494, 32.82)">
                <path d="M29.318,79.929 C23.8253333,79.929 18.9033333,79.0373333 14.552,77.254 C10.2006667,75.4706667 6.72316667,72.8313333 4.1195,69.336 C1.51583333,65.8406667 0.142666667,61.632 1.13686838e-13,56.71 L19.474,56.71 C19.7593333,59.492 20.7223333,61.6141667 22.363,63.0765 C24.0036667,64.5388333 26.1436667,65.27 28.783,65.27 C31.4936667,65.27 33.6336667,64.6458333 35.203,63.3975 C36.7723333,62.1491667 37.557,60.4193333 37.557,58.208 C37.557,56.3533333 36.9328333,54.8196667 35.6845,53.607 C34.4361667,52.3943333 32.9025,51.3956667 31.0835,50.611 C29.2645,49.8263333 26.6786667,48.9346667 23.326,47.936 C18.4753333,46.438 14.5163333,44.94 11.449,43.442 C8.38166667,41.944 5.74233333,39.7326667 3.531,36.808 C1.31966667,33.8833333 0.214,30.067 0.214,25.359 C0.214,18.3683333 2.74633333,12.8935 7.811,8.9345 C12.8756667,4.9755 19.474,2.996 27.606,2.996 C35.8806667,2.996 42.5503333,4.9755 47.615,8.9345 C52.6796667,12.8935 55.3903333,18.404 55.747,25.466 L35.952,25.466 C35.8093333,23.0406667 34.9176667,21.1325 33.277,19.7415 C31.6363333,18.3505 29.532,17.655 26.964,17.655 C24.7526667,17.655 22.9693333,18.2435 21.614,19.4205 C20.2586667,20.5975 19.581,22.2916667 19.581,24.503 C19.581,26.9283333 20.7223333,28.8186667 23.005,30.174 C25.2876667,31.5293333 28.8543333,32.9916667 33.705,34.561 C38.5556667,36.2016667 42.4968333,37.771 45.5285,39.269 C48.5601667,40.767 51.1816667,42.9426667 53.393,45.796 C55.6043333,48.6493333 56.71,52.323 56.71,56.817 C56.71,61.097 55.6221667,64.9846667 53.4465,68.48 C51.2708333,71.9753333 48.1143333,74.7573333 43.977,76.826 C39.8396667,78.8946667 34.9533333,79.929 29.318,79.929 Z" id="Path"></path>
                <path d="M88.086,4.066 C96.004,4.066 102.923333,5.63533333 108.844,8.774 C114.764667,11.9126667 119.347833,16.3175 122.5935,21.9885 C125.839167,27.6595 127.462,34.2043333 127.462,41.623 C127.462,48.9703333 125.839167,55.4973333 122.5935,61.204 C119.347833,66.9106667 114.746833,71.3333333 108.7905,74.472 C102.834167,77.6106667 95.9326667,79.18 88.086,79.18 L59.945,79.18 L59.945,4.066 L88.086,4.066 Z M86.909,63.344 C93.8283333,63.344 99.214,61.4536667 103.066,57.673 C106.918,53.8923333 108.844,48.5423333 108.844,41.623 C108.844,34.7036667 106.918,29.318 103.066,25.466 C99.214,21.614 93.8283333,19.688 86.909,19.688 L78.242,19.688 L78.242,63.344 L86.909,63.344 Z" id="Shape"></path>
                <polygon id="Path" points="148.031 65.056 171.999 65.056 171.999 79.18 129.734 79.18 129.734 4.066 148.031 4.066"></polygon>
                <path d="M184.354,41.516 C184.354,34.0973333 185.959,27.4811667 189.169,21.6675 C192.379,15.8538333 196.855167,11.3241667 202.5975,8.0785 C208.339833,4.83283333 214.849,3.21 222.125,3.21 C231.041667,3.21 238.674333,5.564 245.023,10.272 C251.371667,14.98 255.616,21.4 257.756,29.532 L237.64,29.532 C236.142,26.3933333 234.019833,24.0036667 231.2735,22.363 C228.527167,20.7223333 225.406333,19.902 221.911,19.902 C216.275667,19.902 211.710333,21.8636667 208.215,25.787 C204.719667,29.7103333 202.972,34.9533333 202.972,41.516 C202.972,48.0786667 204.719667,53.3216667 208.215,57.245 C211.710333,61.1683333 216.275667,63.13 221.911,63.13 C225.406333,63.13 228.527167,62.3096667 231.2735,60.669 C234.019833,59.0283333 236.142,56.6386667 237.64,53.5 L257.756,53.5 C255.616,61.632 251.371667,68.0341667 245.023,72.7065 C238.674333,77.3788333 231.041667,79.715 222.125,79.715 C214.849,79.715 208.339833,78.0921667 202.5975,74.8465 C196.855167,71.6008333 192.379,67.089 189.169,61.311 C185.959,55.533 184.354,48.9346667 184.354,41.516 Z" id="Path"></path>
                <path d="M257.353,49.22 C257.353,43.0853333 258.512167,37.6996667 260.8305,33.063 C263.148833,28.4263333 266.305333,24.8596667 270.3,22.363 C274.294667,19.8663333 278.753,18.618 283.675,18.618 C287.883667,18.618 291.575167,19.474 294.7495,21.186 C297.923833,22.898 300.367,25.145 302.079,27.927 L302.079,19.474 L320.376,19.474 L320.376,79.18 L302.079,79.18 L302.079,70.727 C300.295667,73.509 297.816833,75.756 294.6425,77.468 C291.468167,79.18 287.776667,80.036 283.568,80.036 C278.717333,80.036 274.294667,78.7698333 270.3,76.2375 C266.305333,73.7051667 263.148833,70.1028333 260.8305,65.4305 C258.512167,60.7581667 257.353,55.3546667 257.353,49.22 Z M302.079,49.327 C302.079,44.7616667 300.812833,41.1593333 298.2805,38.52 C295.748167,35.8806667 292.663,34.561 289.025,34.561 C285.387,34.561 282.301833,35.8628333 279.7695,38.4665 C277.237167,41.0701667 275.971,44.6546667 275.971,49.22 C275.971,53.7853333 277.237167,57.4055 279.7695,60.0805 C282.301833,62.7555 285.387,64.093 289.025,64.093 C292.663,64.093 295.748167,62.7733333 298.2805,60.134 C300.812833,57.4946667 302.079,53.8923333 302.079,49.327 Z" id="Shape"></path>
                <polygon id="Path" points="343.941 1.13686838e-13 343.941 79.18 325.644 79.18 325.644 1.13686838e-13"></polygon>
                <path d="M345.571,49.327 C345.571,43.121 346.837167,37.6996667 349.3695,33.063 C351.901833,28.4263333 355.432833,24.8596667 359.9625,22.363 C364.492167,19.8663333 369.681667,18.618 375.531,18.618 C383.021,18.618 389.2805,20.5796667 394.3095,24.503 C399.3385,28.4263333 402.637667,33.9546667 404.207,41.088 L384.733,41.088 C383.092333,36.5226667 379.918,34.24 375.21,34.24 C371.857333,34.24 369.182333,35.5418333 367.185,38.1455 C365.187667,40.7491667 364.189,44.4763333 364.189,49.327 C364.189,54.1776667 365.187667,57.9048333 367.185,60.5085 C369.182333,63.1121667 371.857333,64.414 375.21,64.414 C379.918,64.414 383.092333,62.1313333 384.733,57.566 L404.207,57.566 C402.637667,64.5566667 399.320667,70.0493333 394.256,74.044 C389.191333,78.0386667 382.949667,80.036 375.531,80.036 C369.681667,80.036 364.492167,78.7876667 359.9625,76.291 C355.432833,73.7943333 351.901833,70.2276667 349.3695,65.591 C346.837167,60.9543333 345.571,55.533 345.571,49.327 Z" id="Path"></path>
                <path d="M464.901,19.474 L464.901,79.18 L446.604,79.18 L446.604,71.048 C444.749333,73.6873333 442.234833,75.8095 439.0605,77.4145 C435.886167,79.0195 432.373,79.822 428.521,79.822 C423.955667,79.822 419.925333,78.8055 416.43,76.7725 C412.934667,74.7395 410.224,71.797 408.298,67.945 C406.372,64.093 405.409,59.5633333 405.409,54.356 L405.409,19.474 L423.599,19.474 L423.599,51.895 C423.599,55.8896667 424.633333,58.9926667 426.702,61.204 C428.770667,63.4153333 431.552667,64.521 435.048,64.521 C438.614667,64.521 441.432333,63.4153333 443.501,61.204 C445.569667,58.9926667 446.604,55.8896667 446.604,51.895 L446.604,19.474 L464.901,19.474 Z" id="Path"></path>
                <polygon id="Path" points="488.359 1.13686838e-13 488.359 79.18 470.062 79.18 470.062 1.13686838e-13"></polygon>
                <path d="M489.989,49.22 C489.989,43.0853333 491.148167,37.6996667 493.4665,33.063 C495.784833,28.4263333 498.941333,24.8596667 502.936,22.363 C506.930667,19.8663333 511.389,18.618 516.311,18.618 C520.519667,18.618 524.211167,19.474 527.3855,21.186 C530.559833,22.898 533.003,25.145 534.715,27.927 L534.715,19.474 L553.012,19.474 L553.012,79.18 L534.715,79.18 L534.715,70.727 C532.931667,73.509 530.452833,75.756 527.2785,77.468 C524.104167,79.18 520.412667,80.036 516.204,80.036 C511.353333,80.036 506.930667,78.7698333 502.936,76.2375 C498.941333,73.7051667 495.784833,70.1028333 493.4665,65.4305 C491.148167,60.7581667 489.989,55.3546667 489.989,49.22 Z M534.715,49.327 C534.715,44.7616667 533.448833,41.1593333 530.9165,38.52 C528.384167,35.8806667 525.299,34.561 521.661,34.561 C518.023,34.561 514.937833,35.8628333 512.4055,38.4665 C509.873167,41.0701667 508.607,44.6546667 508.607,49.22 C508.607,53.7853333 509.873167,57.4055 512.4055,60.0805 C514.937833,62.7555 518.023,64.093 521.661,64.093 C525.299,64.093 528.384167,62.7733333 530.9165,60.134 C533.448833,57.4946667 534.715,53.8923333 534.715,49.327 Z" id="Shape"></path>
                <path d="M591.557,63.665 L591.557,79.18 L582.248,79.18 C575.614,79.18 570.442333,77.5571667 566.733,74.3115 C563.023667,71.0658333 561.169,65.7693333 561.169,58.422 L561.169,34.668 L553.893,34.668 L553.893,19.474 L561.169,19.474 L561.169,4.922 L579.466,4.922 L579.466,19.474 L591.45,19.474 L591.45,34.668 L579.466,34.668 L579.466,58.636 C579.466,60.4193333 579.894,61.7033333 580.75,62.488 C581.606,63.2726667 583.032667,63.665 585.03,63.665 L591.557,63.665 Z" id="Path"></path>
                <path d="M620.9,80.036 C615.050667,80.036 609.789833,78.7876667 605.1175,76.291 C600.445167,73.7943333 596.7715,70.2276667 594.0965,65.591 C591.4215,60.9543333 590.084,55.533 590.084,49.327 C590.084,43.1923333 591.439333,37.7888333 594.15,33.1165 C596.860667,28.4441667 600.57,24.8596667 605.278,22.363 C609.986,19.8663333 615.264667,18.618 621.114,18.618 C626.963333,18.618 632.242,19.8663333 636.95,22.363 C641.658,24.8596667 645.367333,28.4441667 648.078,33.1165 C650.788667,37.7888333 652.144,43.1923333 652.144,49.327 C652.144,55.4616667 650.770833,60.8651667 648.0245,65.5375 C645.278167,70.2098333 641.533167,73.7943333 636.7895,76.291 C632.045833,78.7876667 626.749333,80.036 620.9,80.036 Z M620.9,64.2 C624.395333,64.2 627.3735,62.916 629.8345,60.348 C632.2955,57.78 633.526,54.1063333 633.526,49.327 C633.526,44.5476667 632.331167,40.874 629.9415,38.306 C627.551833,35.738 624.609333,34.454 621.114,34.454 C617.547333,34.454 614.587,35.7201667 612.233,38.2525 C609.879,40.7848333 608.702,44.4763333 608.702,49.327 C608.702,54.1063333 609.861167,57.78 612.1795,60.348 C614.497833,62.916 617.404667,64.2 620.9,64.2 Z" id="Shape"></path>
                <path d="M672.178,29.425 C674.318,26.1436667 676.993,23.5578333 680.203,21.6675 C683.413,19.7771667 686.979667,18.832 690.903,18.832 L690.903,38.199 L685.874,38.199 C681.308667,38.199 677.884667,39.1798333 675.602,41.1415 C673.319333,43.1031667 672.178,46.545 672.178,51.467 L672.178,79.18 L653.881,79.18 L653.881,19.474 L672.178,19.474 L672.178,29.425 Z" id="Path"></path>
            </g>
        </g>
    </g>
</svg>